<svg xmlns="http://www.w3.org/2000/svg" viewBox="0 0 459.7 170.98"><defs><style>.cls-1{fill:#fff;}</style></defs><g id="Layer_2" data-name="Layer 2"><path class="cls-1" d="M28.51,68a1,1,0,0,1-1.38-.43,2.23,2.23,0,0,1-.15-.52c-.53-3.77-.87-7.9-1.11-11.75-1.79,1.08-3.57,2.28-5.27,3.43a77.69,77.69,0,0,0-6.26,4.87c.24,3.53.61,7.1,1.07,10.41a1,1,0,0,1-.55,1,1,1,0,0,1-1.37-.44,1.85,1.85,0,0,1-.16-.52C12.61,69,12.26,63.37,12,58.41a109.4,109.4,0,0,1,.1-12,1,1,0,0,1,.59-.86,1,1,0,0,1,1.33.46,1,1,0,0,1,.11.54,100.9,100.9,0,0,0-.1,11.84l.1,2.73a56.78,56.78,0,0,1,5.26-4c2-1.41,4.21-2.83,6.34-4.09,0-.58-.08-1.1-.09-1.65a112,112,0,0,1,.1-12.05,1,1,0,0,1,1.92-.39,1,1,0,0,1,.12.54,96.45,96.45,0,0,0-.1,11.83c0,.22,0,.37,0,.59l.73-.38a1,1,0,0,1,1.37.44,1.07,1.07,0,0,1-.52,1.41,12.58,12.58,0,0,0-1.51.89c.25,4.18.66,8.66,1.24,12.73A1,1,0,0,1,28.51,68Z"/><path class="cls-1" d="M42.69,61.85a5.64,5.64,0,0,1-4.19.3,4.63,4.63,0,0,1-2.63-2.63c-.74-1.74-.72-4.06.79-7a20.6,20.6,0,0,1,3-4.2,4.19,4.19,0,0,1-3.31-2.6c-1-2.37-.24-5.42,2.64-8.69,2.58-2.88,6.86-5.95,12.77-8.76a1,1,0,0,1,1.3.45,1,1,0,0,1-.45,1.29c-5.63,2.64-9.7,5.57-12.16,8.35-2.15,2.38-3.1,4.73-2.31,6.6s2.23,1.8,3.52,1.25a35.92,35.92,0,0,1,3.5-3A14.63,14.63,0,0,1,48.37,41c1.65-.7,2.24.21,2,1-.32,1-1.67,2.28-3.39,3.43a32.43,32.43,0,0,1-4.19,2.41,21.53,21.53,0,0,0-4.34,5.56c-1.18,2.18-1.31,4-.75,5.32a2.64,2.64,0,0,0,1.49,1.53,3.64,3.64,0,0,0,2.79-.24A10.57,10.57,0,0,0,46,56.65a106.73,106.73,0,0,0,6.89-10,1,1,0,0,1,1.63,1.11,115.89,115.89,0,0,1-7,10.06A12.28,12.28,0,0,1,42.69,61.85Z"/><path class="cls-1" d="M62.1,36.83c-.92,4.58-1.38,9.46-.33,12.48.51,1.46,1.45,2.37,2.77,1.91a6.67,6.67,0,0,0,3-2.3c1.42-1.52,4.75-5.65,8.32-10.28a1.09,1.09,0,0,1,.46-.32.93.93,0,0,1,1.28.58,1.09,1.09,0,0,1-.16,1c-4.32,5.56-6.74,8.61-8.39,10.37-1.78,2-2.7,2.43-3.89,2.84-2.28.8-4.35-.28-5.36-3.16s-1-7.62.26-13.54a44.94,44.94,0,0,1,3.57-11.55,1,1,0,0,1,.59-.52.93.93,0,0,1,1.25.64.85.85,0,0,1-.08.8A51.31,51.31,0,0,0,62.1,36.83Z"/><path class="cls-1" d="M85,29.66c-1.18,4.52-1.92,9.37-1,12.45.43,1.49,1.31,2.45,2.66,2.06a6.69,6.69,0,0,0,3.17-2.12c1.51-1.43,5.07-5.37,8.9-9.79a.88.88,0,0,1,.47-.29.93.93,0,0,1,1.25.65,1.12,1.12,0,0,1-.22,1c-4.63,5.31-7.23,8.21-9,9.87-1.89,1.85-2.83,2.27-4,2.62-2.33.66-4.34-.53-5.18-3.46s-.52-7.67,1-13.5a44.68,44.68,0,0,1,4.22-11.34,1,1,0,0,1,.62-.48.93.93,0,0,1,1.21.71.87.87,0,0,1-.13.79A51.86,51.86,0,0,0,85,29.66Z"/><path class="cls-1" d="M106.21,23.62a20.93,20.93,0,0,0-.36,9.53c.83,3.69,2.88,5.26,6,4.55,3.54-.81,6.49-4.46,8.49-8.79s3-9.59,2.15-13.47c-.68-3-1.8-4-4-3.47a6.09,6.09,0,0,0-3.33,2.4,12.43,12.43,0,0,0-2.13,4.86,1,1,0,0,1-.76.77,1,1,0,0,1-1.22-.76,1.36,1.36,0,0,1,0-.45,13.49,13.49,0,0,1,2.44-5.63A8.42,8.42,0,0,1,118.07,10c3.26-.74,5.43.7,6.41,5s0,9.9-2.3,14.79c-2.53,5.5-6,9-9.88,9.9-4.16,1-7.28-1-8.44-6.08a22.91,22.91,0,0,1,.39-10.52,28.37,28.37,0,0,1,5.35-10.77,1,1,0,0,1,.57-.32,1.05,1.05,0,0,1,1.22.76,1.09,1.09,0,0,1-.19.89A25.72,25.72,0,0,0,106.21,23.62Z"/><path class="cls-1" d="M128.05,34.06a2.06,2.06,0,0,1,1.61-2.47,2.12,2.12,0,0,1,2.49,1.7,2,2,0,0,1-1.72,2.39A2,2,0,0,1,128.05,34.06Z"/><path class="cls-1" d="M149.11,32.64a.93.93,0,0,1-1.08-.78,1.68,1.68,0,0,1,.05-.69c.78-3.88,1.95-8.49,3.21-12.73,1.07-3.62,2.15-7,3.15-9.73a28.39,28.39,0,0,1-5.78-.42c-.8-.09-1.19-.42-1.26-.95a1,1,0,0,1,.93-1.06,2.7,2.7,0,0,1,.64,0,22.39,22.39,0,0,0,6.4.28c1.91-.27,5.62-1.42,13-4a3.1,3.1,0,0,1,.66-.19,1,1,0,0,1,1.14.82c.08.58-.31,1-1,1.27-6.49,2.23-9.84,3.43-12.42,3.93-1,2.79-2.27,6.53-3.46,10.61s-2.36,8.69-3.11,12.47C149.94,32.23,149.64,32.56,149.11,32.64Z"/><path class="cls-1" d="M182.78,29a1,1,0,0,1-1.11-.92,2.53,2.53,0,0,1,.05-.54c.93-3.68,2.18-7.64,3.4-11.31-2.06.34-4.16.77-6.17,1.2a76.85,76.85,0,0,0-7.64,2.15c-1.1,3.36-2.1,6.81-2.93,10a1,1,0,0,1-.9.76,1,1,0,0,1-1.11-.92,2.53,2.53,0,0,1,0-.54c1.25-5,3.05-10.35,4.72-15a108.65,108.65,0,0,1,4.63-11.13,1,1,0,0,1,.87-.57,1,1,0,0,1,1.06.93.89.89,0,0,1-.1.54,98,98,0,0,0-4.55,10.93l-.93,2.56a57.22,57.22,0,0,1,6.36-1.69c2.39-.56,5-1,7.42-1.41.19-.55.34-1,.54-1.56a110.64,110.64,0,0,1,4.63-11.13,1,1,0,0,1,.87-.56,1,1,0,0,1,1.06.92.92.92,0,0,1-.1.55,97.72,97.72,0,0,0-4.55,10.92c-.08.21-.11.36-.19.56l.82-.08a1,1,0,0,1,1.1.92,1.08,1.08,0,0,1-1,1.12,12,12,0,0,0-1.73.25c-1.34,4-2.66,8.27-3.66,12.26A1,1,0,0,1,182.78,29Z"/><path class="cls-1" d="M206.06,28a2.93,2.93,0,0,1-3.22-2.88c0-1.16.38-2.77,2.33-5a27.32,27.32,0,0,1,7.4-5.44A57.13,57.13,0,0,0,214,8.57a28.3,28.3,0,0,0,.56-5.4c0-.73-.29-1.15-.92-1.13-1,0-2.62,1.27-4.44,3a73.69,73.69,0,0,0-6.64,7.34c-2.13,2.56-4.16,5.35-6,8a79.17,79.17,0,0,0-4.37,7.35,1,1,0,1,1-1.78-.9,61.12,61.12,0,0,1,4.5-7.59c1.79-2.74,3.91-5.54,6-8.19a73.16,73.16,0,0,1,6.88-7.55c2.39-2.18,4.42-3.47,5.88-3.53,1.69-.06,2.8,1.1,2.88,3.09A29.75,29.75,0,0,1,216,8.93c-.29,1.42-.61,2.94-1,4.5l5.14-2.38a1,1,0,0,1,1.33.48,1,1,0,0,1-.48,1.33l-4.95,2.28c-.62.26-1.24.58-1.76.84,0,.15-.09.25-.13.4a41.13,41.13,0,0,1-3.33,7.74C209.35,26.55,207.66,27.93,206.06,28ZM206,26c1.16-.05,2.13-1.3,3.14-2.89a29,29,0,0,0,2.54-5.58,22.21,22.21,0,0,0-4.94,3.93c-1.39,1.61-1.83,2.74-1.8,3.51A1,1,0,0,0,206,26Z"/><path class="cls-1" d="M237.12,27.89c-1.84,0-2.75-1.4-3.33-4.85a81,81,0,0,1-.76-8.29c-.16-2.77-.36-5.92-.41-9.75-1,1.87-2.38,4.38-3.82,7.12-2.54,5-5.33,10.74-6.94,14.69a1.12,1.12,0,0,1-1.36.57,1.13,1.13,0,0,1-.56-1.37c1.65-4,4.39-9.73,7-14.79A98.63,98.63,0,0,1,232.87.83a1,1,0,0,1,1.79.71c-.07,5.28.16,9.59.41,13s.4,6.11.71,8,.64,3.25,1.37,3.26,1.71-1.48,2.8-3.21c1.44-2.21,3-5.24,4.57-8.37,1.24-2.41,2.44-4.91,3.59-7.18s2.23-4.33,3.18-5.87A1,1,0,0,1,252.7.9,1,1,0,0,1,253,2.31c-.94,1.49-2,3.51-3.13,5.73s-2.34,4.72-3.54,7.12a95.1,95.1,0,0,1-4.67,8.57C239.9,26.52,238.43,27.9,237.12,27.89Z"/><path class="cls-1" d="M263.24,29.25c-4.11-.29-6.91-5.39-6.47-11.77a9.62,9.62,0,0,1,.19-1.25c-2.22,4-4.3,8.06-5.74,11.26a1,1,0,0,1-1,.61,1,1,0,0,1-1-1.08,2,2,0,0,1,.14-.53c1.82-3.9,4.4-8.92,7-13.45S262,4.15,264.11,2.11a1,1,0,0,1,.79-.29,1,1,0,0,1,1,1.09,1.17,1.17,0,0,1-.29.66c-2.08,1.94-4.74,6-7.34,10.52,2.31-1.74,9.16-4.61,13.53-6.59,3.56-1.6,6.82-3.07,9.68-4.38A1,1,0,0,1,282,3a1,1,0,0,1,.9,1,1,1,0,0,1-.6.89c-2.81,1.31-6.12,2.78-9.68,4.42s-7.37,3.33-11.29,5.19c-1.71.9-2.38,1.44-2.51,3.28-.34,4.83,1.79,9.21,4.59,9.4.78.05,2.07-.39,4.23-1.41,2.41-1.09,5.79-2.95,10.59-5.67a1,1,0,0,1,.6-.16,1.06,1.06,0,0,1,.94,1.09.94.94,0,0,1-.49.79c-4.91,2.82-8.34,4.67-10.8,5.81C265.79,28.89,264.21,29.32,263.24,29.25Z"/><path class="cls-1" d="M294.24,32.57c-1.58-.22-2.36-1.66-2.12-3.38.33-2.35,2.43-5.44,5.83-8.73a74,74,0,0,1,5.94-5,11.11,11.11,0,0,0-.58-4.92,4.3,4.3,0,0,0-3.41-2.93A1.06,1.06,0,0,1,299,6.47a1.06,1.06,0,0,1,1.15-.86,6.24,6.24,0,0,1,5,4.23,12.93,12.93,0,0,1,.77,4.22c6.1-4,11.94-5.91,16.45-5.28a1.07,1.07,0,0,1,.87,1.15,1.06,1.06,0,0,1-1.15.87c-4.89-.69-11.07,2.16-16.39,5.87a31.37,31.37,0,0,1-4.43,10C298.85,30.43,296.83,32.93,294.24,32.57Zm.43-2c1.29.18,3.27-2.38,5-5.07a30.91,30.91,0,0,0,3.46-6.86c-4.85,3.87-8.6,8.24-9,10.93C294,30.14,294.19,30.5,294.67,30.57Z"/><path class="cls-1" d="M321.5,19.8a20.92,20.92,0,0,0-4.17,8.57c-.72,3.72.53,6,3.67,6.58,3.56.69,7.73-1.47,11.3-4.63s6.64-7.55,7.39-11.45c.58-3-.05-4.35-2.24-4.78a6.13,6.13,0,0,0-4,.86,12.36,12.36,0,0,0-3.9,3.59,1,1,0,0,1-1,.4,1,1,0,0,1-.8-1.2,1.47,1.47,0,0,1,.18-.41,13.55,13.55,0,0,1,4.5-4.16,8.37,8.37,0,0,1,5.44-1.07c3.28.63,4.68,2.82,3.85,7.15s-4,9.05-8.06,12.61c-4.52,4-9.12,5.84-13,5.09-4.19-.81-6.27-3.82-5.28-9a23.09,23.09,0,0,1,4.59-9.48,28.36,28.36,0,0,1,9.23-7.69.94.94,0,0,1,.66-.07,1,1,0,0,1,.8,1.19,1.09,1.09,0,0,1-.53.73A25.58,25.58,0,0,0,321.5,19.8Z"/><path class="cls-1" d="M354.37,38.51c-4.86,3.27-8.14,4.2-10.59,3.58-2.63-.66-4.33-3-3.4-6.75a26.2,26.2,0,0,1,4.71-8.81,56.33,56.33,0,0,1,9.62-9.62A1,1,0,0,1,356,18.53a52.74,52.74,0,0,0-9.26,9.22,23.6,23.6,0,0,0-4.39,8.09c-.59,2.35.19,3.84,1.93,4.28s4.89-.57,9-3.34c4.4-3,10.05-8,16.94-15.73a1,1,0,0,1,1.55,1.39C364.68,30.31,358.89,35.45,354.37,38.51Z"/><path class="cls-1" d="M372.2,49.92a1.06,1.06,0,0,1-.18-1.44A36,36,0,0,1,381.6,40a5.89,5.89,0,0,1-.91-5.48c1.06-3.12,3.74-4.82,8.11-5.18,3.89-.32,9.13.54,15.4,2.71a1,1,0,1,1-.65,1.93c-5.92-2-10.93-2.94-14.62-2.6-3.27.27-5.51,1.46-6.31,3.8a3.87,3.87,0,0,0,.84,3.86,11.25,11.25,0,0,1,8.66-.8c2.39.81,3.43,2.29,2.82,4.08-.76,2.25-3.89,2.72-8,1.34a13,13,0,0,1-3.88-2.14c-3.26,1.61-6.71,4.84-9.44,8.22A1,1,0,0,1,372.2,49.92Zm12.95-9.37a10.23,10.23,0,0,0,2.51,1.21c3.12,1.05,5.1.65,5.35-.08s-.3-1.08-1.54-1.5A9.15,9.15,0,0,0,385.15,40.55Z"/><path class="cls-1" d="M403.79,43.7A20.93,20.93,0,0,0,398,51.27c-1.44,3.5-.67,6,2.29,7.18,3.36,1.38,7.87.09,12-2.29s8-6.09,9.51-9.77c1.16-2.82.82-4.27-1.24-5.12a6.11,6.11,0,0,0-4.11,0,12.33,12.33,0,0,0-4.53,2.75,1,1,0,0,1-1.07.18,1,1,0,0,1-.56-1.32,1.55,1.55,0,0,1,.26-.37,13.53,13.53,0,0,1,5.24-3.19,8.38,8.38,0,0,1,5.54,0c3.09,1.27,4,3.7,2.35,7.78S418,55.24,413.29,57.93c-5.23,3-10.1,3.91-13.78,2.4-3.94-1.62-5.38-5-3.39-9.83a23,23,0,0,1,6.38-8.38,28.32,28.32,0,0,1,10.57-5.71,1,1,0,0,1,.66.06,1.05,1.05,0,0,1,.55,1.33,1.07,1.07,0,0,1-.67.61A25.59,25.59,0,0,0,403.79,43.7Z"/><path class="cls-1" d="M416.62,67.94a2.91,2.91,0,0,1-1.24-4.21c.81-1.6,2.56-3.44,7-5.71a58,58,0,0,1,9.54-3.93c1.48-1.74,3.09-3.64,4.86-5.85a1.07,1.07,0,0,1,1.45-.19,1.08,1.08,0,0,1,.19,1.46c-1.05,1.31-2.07,2.48-3,3.62l.91-.19c5-1.12,9.28-1.39,12.35.17,2.47,1.24,3.15,3.44,2.1,5.51s-2.92,3.41-9,4.36c-7,1.12-9.33,1.47-10.05,2.9s.69,4.86,2.74,8.77a1,1,0,0,1-1.79.94c-3.07-5.73-3.86-8.57-2.87-10.52,1.22-2.42,3.5-2.95,11.63-4.11,4.62-.65,6.75-1.74,7.51-3.26.53-1,.19-2.08-1.2-2.78-2.33-1.18-6.19-1.06-10.92,0-1.24.3-2.54.62-3.78,1a95.18,95.18,0,0,1-8.86,9.26C420.26,68.47,418.14,68.7,416.62,67.94Zm.92-1.82c1.12.57,2.78-.33,5.28-2.49a65.18,65.18,0,0,0,6.31-6.36,58.3,58.3,0,0,0-5.8,2.55c-3.65,2-5.47,3.53-6.13,4.83C416.94,65.17,416.89,65.79,417.54,66.12Z"/><path class="cls-1" d="M2.07,108.1a21.08,21.08,0,0,0,2.39,9.23c1.87,3.29,4.28,4.2,7.07,2.62,3.16-1.79,4.92-6.14,5.59-10.86S17.26,99,15.3,95.57c-1.51-2.65-2.87-3.27-4.81-2.17A6.08,6.08,0,0,0,8,96.65a12.46,12.46,0,0,0-.64,5.27,1,1,0,0,1-.51,1,1,1,0,0,1-1.39-.38,1.53,1.53,0,0,1-.13-.43A13.67,13.67,0,0,1,6.05,96a8.4,8.4,0,0,1,3.44-4.34c2.91-1.65,5.4-.9,7.58,2.94s2.82,9.49,2.06,14.82c-.84,6-3.14,10.37-6.6,12.33-3.71,2.11-7.25,1.16-9.84-3.39A23.07,23.07,0,0,1,0,108.14a28.53,28.53,0,0,1,2-11.85,1,1,0,0,1,.45-.48,1.06,1.06,0,0,1,1.39.39,1.07,1.07,0,0,1,.07.91A25.63,25.63,0,0,0,2.07,108.1Z"/><path class="cls-1" d="M28.53,113.29a2.84,2.84,0,0,1-3.94-1.59c-1.67-3.61-.88-9.63,2.27-17.82.19-.51.4-1,.59-1.5-.41-2.15-.94-4.58-1.58-7.22A1.13,1.13,0,0,1,26.49,84a.91.91,0,0,1,1.29.47,3.41,3.41,0,0,1,.24.74c.32,1.4.59,2.77.87,4.08,2.73-5.53,5.88-9.33,9-10.8,2.42-1.12,4.35-.3,5.33,1.81,1.09,2.38,1,5.69-.43,9.81s-3.49,6.89-6,8a4.05,4.05,0,0,1-5.37-1.79A1.08,1.08,0,0,1,32,94.93a1,1,0,0,1,1.25.38,2.14,2.14,0,0,0,2.74,1c2.16-1,3.87-3.87,4.92-6.92s1.38-6.35.51-8.24c-.53-1.15-1.43-1.37-2.62-.82C35.31,81.92,32,87,29.57,92.58c.34,1.77.63,3.44.85,5a71.19,71.19,0,0,1,.78,8.5C31.23,110,30.37,112.44,28.53,113.29Zm-.86-1.84c.84-.39,1.43-1.89,1.47-5.38a57.69,57.69,0,0,0-.73-8.26c-.07-.5-.16-1-.25-1.59-2,5.86-3.05,11.77-1.73,14.63C26.72,111.46,27.15,111.69,27.67,111.45Z"/><path class="cls-1" d="M55.14,101.78a5.64,5.64,0,0,1-4.2.14,4.63,4.63,0,0,1-2.53-2.72c-.67-1.77-.57-4.09,1.05-6.93a20.87,20.87,0,0,1,3.12-4.09,4.18,4.18,0,0,1-3.21-2.72c-.91-2.4,0-5.43,3-8.58C55,74.1,59.41,71.19,65.42,68.6a1,1,0,0,1,.78,1.78c-5.71,2.42-9.9,5.2-12.46,7.88-2.23,2.3-3.28,4.61-2.56,6.51s2.17,1.88,3.48,1.38a36.47,36.47,0,0,1,3.61-2.92,14.69,14.69,0,0,1,3.32-2c1.68-.64,2.24.29,1.92,1.08-.36,1-1.75,2.22-3.52,3.31a33.17,33.17,0,0,1-4.28,2.24,21.7,21.7,0,0,0-4.54,5.4c-1.26,2.13-1.46,3.92-1,5.28a2.64,2.64,0,0,0,1.43,1.58,3.63,3.63,0,0,0,2.8-.13,10.6,10.6,0,0,0,4.21-3.25A105,105,0,0,0,65.92,87a1,1,0,1,1,1.58,1.16A110.34,110.34,0,0,1,60.12,98,12.29,12.29,0,0,1,55.14,101.78Z"/><path class="cls-1" d="M88.72,90.6c-1.77.53-3-.5-4.64-3.61a79.5,79.5,0,0,1-3.24-7.67c-1-2.59-2.13-5.53-3.33-9.17-.43,2.1-1,4.89-1.49,7.95-.91,5.53-1.83,11.84-2.16,16.09A1,1,0,1,1,71.78,94C72.14,89.7,73,83.41,74,77.79a99.9,99.9,0,0,1,2.48-11.68,1,1,0,0,1,1.92.13c1.53,5.05,3.06,9.09,4.33,12.3S85,84.24,85.84,86s1.59,2.91,2.29,2.7,1.18-1.93,1.7-3.91c.7-2.54,1.25-5.89,1.82-9.36.46-2.67.84-5.42,1.24-7.92s.83-4.8,1.26-6.56a1,1,0,0,1,1.24-.73,1,1,0,0,1,.74,1.25c-.45,1.7-.83,4-1.25,6.4s-.81,5.21-1.22,7.86c-.54,3.56-1.17,7-1.85,9.58C91,88.45,90,90.22,88.72,90.6Z"/><path class="cls-1" d="M104.44,70.56c-1,4.89-1.8,10.5-2.28,15.57a1,1,0,0,1-.77.89,1,1,0,0,1-1.24-.74,2.42,2.42,0,0,1,0-.54c.46-5.11,1.4-10.7,2.32-15.58a109.74,109.74,0,0,1,2.85-11.71,1,1,0,0,1,.77-.7,1,1,0,0,1,1.19.75,1,1,0,0,1,0,.56A95.5,95.5,0,0,0,104.44,70.56Z"/><path class="cls-1" d="M127.9,81.38c-1.8.37-3-.77-4.28-4a82,82,0,0,1-2.52-7.94c-.75-2.67-1.62-5.7-2.48-9.43-.62,2-1.39,4.78-2.22,7.77-1.4,5.43-2.9,11.63-3.62,15.83a1,1,0,1,1-2.06-.37c.76-4.26,2.21-10.44,3.71-15.94A100.66,100.66,0,0,1,118,55.86a1,1,0,0,1,1.89.31c1.07,5.17,2.22,9.34,3.19,12.65a80.33,80.33,0,0,0,2.42,7.67c.74,1.92,1.31,3,2,2.9s1.35-1.82,2.05-3.74c.93-2.46,1.79-5.76,2.67-9.15.7-2.62,1.33-5.32,2-7.78S135.45,54,136,52.31A1,1,0,1,1,138,53c-.6,1.66-1.19,3.86-1.83,6.26s-1.28,5.11-1.93,7.72c-.87,3.49-1.81,6.85-2.73,9.37C130.33,79.45,129.19,81.12,127.9,81.38Z"/><path class="cls-1" d="M147.36,78.17c-4.07.6-6.73-1.17-7.38-5.58-.7-4.84,1.09-10.34,4.82-14.91a26.77,26.77,0,0,1,17-9.35,1,1,0,0,1,.29,2A24.81,24.81,0,0,0,146.36,59c-3.35,4.17-4.84,9.09-4.22,13.31.44,3,2.24,4.27,4.93,3.88,2.49-.37,5.21-2.23,7.24-4.39A12.69,12.69,0,0,0,157.09,68a14.54,14.54,0,0,1-4.58,1.55c-2.3.34-3.82-.66-4-2.24-.33-2.26,2-4.42,5.74-5,2.59-.38,4.34.54,5,2.4.95-.53,1.88-1.15,2.92-1.8a1,1,0,0,1,1.13,1.7c-1.44.9-2.8,1.63-3.8,2.17-.22,1.85-1.51,4.09-3.66,6.41A15.09,15.09,0,0,1,147.36,78.17Zm5-10.67a17.26,17.26,0,0,0,5-1.72c-.23-1.24-1.08-1.7-2.9-1.43-2.21.32-4.2,1.44-4,2.5C150.55,67.47,151.12,67.68,152.36,67.5Z"/><path class="cls-1" d="M177.1,74.41a.93.93,0,0,1-1-.84,2,2,0,0,1,.09-.69c1-3.83,2.42-8.37,3.92-12.53,1.26-3.56,2.54-6.92,3.68-9.55a28,28,0,0,1-5.75-.73c-.79-.13-1.16-.49-1.2-1a1,1,0,0,1,1-1,2.19,2.19,0,0,1,.64.05,22.62,22.62,0,0,0,6.37.63c1.94-.16,5.7-1.1,13.2-3.28a3.23,3.23,0,0,1,.67-.15,1,1,0,0,1,1.09.88c.05.58-.36.95-1.11,1.21-6.61,1.86-10,2.87-12.62,3.24C184.84,53.34,183.39,57,182,61s-2.84,8.55-3.79,12.28C178,74,177.64,74.36,177.1,74.41Z"/><path class="cls-1" d="M210.92,72.57a1,1,0,0,1-1.06-1,2.52,2.52,0,0,1,.08-.54c1.13-3.63,2.58-7.51,4-11.11-2.07.22-4.2.55-6.22.86A78.11,78.11,0,0,0,200,62.54c-1.29,3.3-2.47,6.69-3.47,9.88a1,1,0,0,1-.95.71,1,1,0,0,1-1.05-1,1.63,1.63,0,0,1,.08-.53c1.51-4.91,3.6-10.18,5.52-14.76A111,111,0,0,1,205.33,46a1,1,0,0,1,1.91.46,1,1,0,0,1-.13.54A97.74,97.74,0,0,0,202,57.67l-1.07,2.51a57.53,57.53,0,0,1,6.45-1.35c2.4-.43,5-.77,7.48-1,.22-.54.39-1,.62-1.52a113.41,113.41,0,0,1,5.22-10.86,1,1,0,0,1,.91-.52,1,1,0,0,1,1,1,1,1,0,0,1-.12.54,96.16,96.16,0,0,0-5.14,10.66c-.09.2-.13.35-.22.54l.82,0a1,1,0,0,1,1.06,1,1.08,1.08,0,0,1-1.08,1.06,14.38,14.38,0,0,0-1.74.16c-1.55,3.89-3.1,8.12-4.31,12A1,1,0,0,1,210.92,72.57Z"/><path class="cls-1" d="M229,57.21c-2.09,4.52-4.22,9.78-5.88,14.59a1,1,0,0,1-1,.69,1,1,0,0,1-1-1,2.05,2.05,0,0,1,.1-.54c1.65-4.86,3.88-10.06,5.92-14.59a110.61,110.61,0,0,1,5.53-10.71,1,1,0,0,1,.91-.5,1,1,0,0,1,1,1,1,1,0,0,1-.14.54A95.74,95.74,0,0,0,229,57.21Z"/><path class="cls-1" d="M238.7,72.67a1,1,0,0,1-1-1,1,1,0,0,1,.22-.63,95.29,95.29,0,0,1,11.64-11.57c2.73-2.39,5.26-4.21,5.92-5.3-1.8.23-5.48,1.87-9.07,3.41-5,2.23-8.06,3.69-9.22,3.65a1.27,1.27,0,0,1-1.36-1.45c0-1.45,2-4.2,5.16-7.21a66.39,66.39,0,0,1,9.88-7.85.9.9,0,0,1,.59-.17,1,1,0,0,1,1,1,.94.94,0,0,1-.46.81A69.56,69.56,0,0,0,242.41,54c-2.1,2-3.9,3.9-4.37,5,1.27-.44,4.33-2,7.57-3.36,4.27-1.86,8.78-3.66,10.53-3.61,1.11,0,1.58.58,1.55,1.45,0,1.41-2.73,4-6.76,7.46a88.83,88.83,0,0,0-11.4,11.34A1,1,0,0,1,238.7,72.67Z"/><path class="cls-1" d="M267.88,74.58a2.83,2.83,0,0,1-2.59-3.36c.38-4,4.11-8.76,11-14.23.42-.35.84-.65,1.26-1,.74-2.07,1.5-4.43,2.29-7a1.14,1.14,0,0,1,1.14-.72.91.91,0,0,1,.87,1.06,2.76,2.76,0,0,1-.17.76c-.43,1.38-.89,2.69-1.31,4,5.15-3.4,9.79-5.09,13.26-4.76,2.66.26,3.91,1.94,3.68,4.26-.25,2.6-2,5.4-5.32,8.24s-6.5,4.19-9.24,3.93A4.06,4.06,0,0,1,279,61.44a1.08,1.08,0,0,1,1.16-1,1,1,0,0,1,.88,1,2.14,2.14,0,0,0,1.88,2.22c2.36.23,5.3-1.38,7.74-3.48s4.41-4.79,4.61-6.86c.12-1.25-.55-1.9-1.85-2-3.81-.37-9.19,2.33-14.16,5.93-.6,1.7-1.19,3.3-1.77,4.7a71.3,71.3,0,0,1-3.62,7.73C271.87,73.12,269.91,74.78,267.88,74.58Zm.2-2c.92.09,2.18-.91,4-3.9a58.52,58.52,0,0,0,3.55-7.5c.19-.46.39-1,.58-1.5-4.72,4-8.57,8.62-8.88,11.75C267.25,72.09,267.5,72.5,268.08,72.56Z"/><path class="cls-1" d="M302.53,78.75a2.93,2.93,0,0,1-2.64-3.42c.17-1.15.88-2.66,3.21-4.52a27.4,27.4,0,0,1,8.28-4,56.78,56.78,0,0,0,2.55-5.7,27.91,27.91,0,0,0,1.54-5.21c.11-.72-.07-1.19-.69-1.28-1-.14-2.81.77-4.91,2.12a76.2,76.2,0,0,0-7.89,6c-2.56,2.12-5.06,4.49-7.36,6.8A79.76,79.76,0,0,0,289,76a1,1,0,0,1-1.39.19,1,1,0,0,1-.19-1.4,61,61,0,0,1,5.82-6.64c2.26-2.36,4.86-4.72,7.44-6.94A72.9,72.9,0,0,1,308.8,55c2.74-1.7,5-2.6,6.42-2.39,1.68.25,2.56,1.6,2.27,3.57a30.05,30.05,0,0,1-1.66,5.63c-.54,1.34-1.14,2.77-1.8,4.24l5.5-1.4a1,1,0,0,1,1.21.72,1,1,0,0,1-.71,1.22L314.74,68c-.66.15-1.33.34-1.89.51-.07.13-.13.22-.2.36a40.3,40.3,0,0,1-4.7,7C306,77.94,304.11,79,302.53,78.75Zm.29-2c1.15.17,2.33-.88,3.61-2.26a28.86,28.86,0,0,0,3.53-5,22.14,22.14,0,0,0-5.57,3c-1.67,1.33-2.31,2.36-2.42,3.13A1,1,0,0,0,302.82,76.74Z"/><path class="cls-1" d="M323.84,82.58c-4-.82-5.94-3.38-5-7.75,1-4.8,4.52-9.37,9.59-12.39a26.74,26.74,0,0,1,19.2-3,1,1,0,0,1-.4,2,24.8,24.8,0,0,0-17.77,2.77c-4.57,2.78-7.64,6.9-8.48,11.08-.61,3,.66,4.78,3.32,5.32,2.46.51,5.65-.33,8.3-1.67a12.77,12.77,0,0,0,3.89-2.62,14.85,14.85,0,0,1-4.83-.09c-2.28-.47-3.36-1.92-3.05-3.49.46-2.23,3.43-3.46,7.08-2.72,2.57.52,3.9,2,3.9,4,1.07-.18,2.16-.45,3.35-.7a1,1,0,1,1,.49,2c-1.65.36-3.18.59-4.31.76-.83,1.66-2.8,3.34-5.62,4.79A15.07,15.07,0,0,1,323.84,82.58Zm8.32-8.35a17,17,0,0,0,5.32.09c.21-1.24-.44-2-2.24-2.33-2.19-.45-4.44-.06-4.65,1C330.46,73.59,330.93,74,332.16,74.23Z"/><path class="cls-1" d="M346.37,87.68a5.57,5.57,0,0,1-3.5-2.31,4.63,4.63,0,0,1-.49-3.69c.47-1.83,1.9-3.66,4.87-5a20.61,20.61,0,0,1,4.9-1.52,4.22,4.22,0,0,1-1-4.08c.65-2.49,3.12-4.45,7.39-5.28,3.79-.72,9.06-.55,15.46.83a1,1,0,0,1,.75,1.14,1,1,0,0,1-1.14.76c-6.07-1.34-11.08-1.49-14.72-.79-3.16.58-5.35,1.86-5.86,3.83s.68,2.78,2,3.14a36,36,0,0,1,4.63-.3,14.66,14.66,0,0,1,3.89.27c1.73.45,1.65,1.53.93,2s-2.71.8-4.78.66a32.51,32.51,0,0,1-4.79-.65,21.8,21.8,0,0,0-6.82,1.77c-2.27,1-3.47,2.35-3.84,3.76a2.67,2.67,0,0,0,.25,2.12,3.71,3.71,0,0,0,2.36,1.52,10.66,10.66,0,0,0,5.31-.22,105.67,105.67,0,0,0,11.54-3.7,1,1,0,1,1,.61,1.86,112.12,112.12,0,0,1-11.68,3.71A12.23,12.23,0,0,1,346.37,87.68Z"/><path class="cls-1" d="M387,100.39a2.93,2.93,0,0,1-1.9-3.88c.39-1.09,1.39-2.43,4-3.8a27.36,27.36,0,0,1,8.9-2.26,53.5,53.5,0,0,0,3.63-5.08,28.28,28.28,0,0,0,2.55-4.8c.24-.68.16-1.18-.43-1.39-1-.34-2.9.19-5.24,1.11a74.08,74.08,0,0,0-8.91,4.31c-2.94,1.57-5.86,3.41-8.57,5.21a78.8,78.8,0,0,0-6.8,5.18,1,1,0,0,1-1.41-.09,1,1,0,0,1,.09-1.41,60.6,60.6,0,0,1,7-5.36c2.68-1.87,5.7-3.67,8.67-5.33a74,74,0,0,1,9.2-4.42c3-1.12,5.41-1.56,6.77-1.07,1.6.58,2.19,2.08,1.52,4a29.16,29.16,0,0,1-2.74,5.19c-.79,1.21-1.67,2.49-2.6,3.81l5.66-.29a1,1,0,0,1,1.05,1,1,1,0,0,1-.94,1l-5.45.26c-.67,0-1.37.07-1.95.12-.09.12-.17.19-.27.31a40.18,40.18,0,0,1-6,5.94C390.63,100.29,388.55,100.93,387,100.39Zm.69-1.92c1.09.4,2.46-.4,4-1.5a28.3,28.3,0,0,0,4.45-4.22,22.39,22.39,0,0,0-6.05,1.79c-1.89,1-2.73,1.86-3,2.59A1,1,0,0,0,387.73,98.47Z"/><path class="cls-1" d="M415.46,112.34c-1.68-.76-2-2.37-1.12-5.77A79.66,79.66,0,0,1,417,98.66c1-2.6,2-5.57,3.52-9.1-1.71,1.3-3.94,3.06-6.35,5-4.33,3.58-9.17,7.72-12.22,10.71a1.13,1.13,0,0,1-1.48,0,1.14,1.14,0,0,1,0-1.48c3.11-3,7.91-7.17,12.35-10.75a100.56,100.56,0,0,1,9.56-7.17,1,1,0,0,1,1.35,1.36c-2.17,4.81-3.68,8.86-4.83,12.12a79.74,79.74,0,0,0-2.53,7.63c-.53,2-.72,3.24-.06,3.53s2.17-.67,3.86-1.82c2.19-1.45,4.82-3.62,7.53-5.85,2.1-1.71,4.19-3.53,6.15-5.15s3.78-3.08,5.26-4.11a1,1,0,0,1,1.42.27,1,1,0,0,1-.27,1.42c-1.46,1-3.22,2.42-5.16,4s-4,3.39-6.08,5.12c-2.75,2.32-5.48,4.49-7.7,6C418.55,112.19,416.65,112.88,415.46,112.34Z"/><path class="cls-1" d="M455.23,102.26c4.23,2.36,5.54,5.7,3.58,9.21-2.25,4-7.79,7.09-13.78,8.58-6.32,1.58-12.27,1.31-15.78-.65-1.95-1.08-2.41-2.56-1.37-4.42.92-1.65,4-4.22,7.78-6.59A53,53,0,0,1,447,103a1.11,1.11,0,0,1,1.31.73,1.05,1.05,0,0,1-.71,1.27,48.15,48.15,0,0,0-10.86,5.15c-3.39,2.1-6.27,4.38-7.1,5.86-.38.68-.19,1.23.58,1.66,3.21,1.79,8.9,1.74,14.3.42S455,114.12,457,110.48c1.32-2.37.51-4.6-2.79-6.44a20.42,20.42,0,0,0-8.63-2.54,1,1,0,1,1,.13-2A22,22,0,0,1,455.23,102.26Z"/><path class="cls-1" d="M14.85,169.6a2.9,2.9,0,0,1-4.15-1.44c-.83-1.58-1.31-4.07-.61-9a59.16,59.16,0,0,1,2.34-10c-.56-2.22-1.18-4.64-1.94-7.35a1,1,0,1,1,2-.6c.46,1.61.82,3.12,1.19,4.57l.38-.86c2-4.69,4.25-8.36,7.3-10,2.45-1.28,4.63-.57,5.71,1.49s1.08,4.36-1.67,9.86c-3.17,6.37-4.21,8.45-3.47,9.86s4.36,2.26,8.73,2.86a1,1,0,0,1,.86,1.14,1,1,0,0,1-1.13.86c-6.45-.82-9.22-1.83-10.24-3.76-1.26-2.4-.37-4.57,3.41-11.86,2.15-4.14,2.49-6.51,1.71-8-.54-1-1.59-1.36-3-.64C20,138,17.82,141.17,16,145.65c-.48,1.18-1,2.42-1.36,3.67A94.08,94.08,0,0,1,17,161.91C17.4,167,16.35,168.81,14.85,169.6Zm-.95-1.8c1.12-.59,1.34-2.46,1-5.75a67,67,0,0,0-1.52-8.83,60.32,60.32,0,0,0-1.29,6.2c-.52,4.11-.3,6.51.37,7.8A1,1,0,0,0,13.9,167.8Z"/><path class="cls-1" d="M40.45,157a5.62,5.62,0,0,1-4.19.33,4.67,4.67,0,0,1-2.65-2.6c-.75-1.74-.74-4.06.75-7a20.39,20.39,0,0,1,2.93-4.22A4.21,4.21,0,0,1,34,141c-1-2.36-.27-5.42,2.59-8.71,2.55-2.89,6.81-6,12.7-8.85a1,1,0,0,1,.86,1.75c-5.61,2.67-9.66,5.63-12.1,8.42-2.13,2.4-3.07,4.76-2.27,6.62S38,142,39.28,141.45a35.41,35.41,0,0,1,3.47-3.08A14.57,14.57,0,0,1,46,136.19c1.65-.71,2.25.19,2,1-.31,1-1.65,2.29-3.36,3.45a32.72,32.72,0,0,1-4.18,2.43,21.6,21.6,0,0,0-4.29,5.6c-1.17,2.19-1.29,4-.72,5.32a2.67,2.67,0,0,0,1.5,1.52,3.69,3.69,0,0,0,2.79-.26,10.62,10.62,0,0,0,4.06-3.43,104.39,104.39,0,0,0,6.83-10,1,1,0,0,1,1.36-.27,1,1,0,0,1,.27,1.36A112.13,112.13,0,0,1,45.26,153,12.28,12.28,0,0,1,40.45,157Z"/><path class="cls-1" d="M70,145.68a2.91,2.91,0,0,1-3.91-1.81c-.39-1.1-.46-2.77.74-5.5A27.57,27.57,0,0,1,72.32,131a53.32,53.32,0,0,0-.38-6.23,27.19,27.19,0,0,0-1-5.33c-.23-.69-.61-1-1.2-.81-1,.33-2.13,2-3.37,4.15a72.55,72.55,0,0,0-4.21,9c-1.29,3.07-2.41,6.33-3.37,9.44a79.68,79.68,0,0,0-2,8.31,1,1,0,0,1-2-.34,60.27,60.27,0,0,1,2.09-8.58c.9-3.14,2.11-6.44,3.37-9.6a72.25,72.25,0,0,1,4.37-9.23c1.64-2.78,3.21-4.61,4.58-5.09,1.6-.56,3,.23,3.67,2.1A30.12,30.12,0,0,1,74,124.54c.14,1.43.27,3,.37,4.59l4.22-3.79a1,1,0,0,1,1.41.07,1,1,0,0,1-.07,1.41l-4.07,3.63c-.51.44-1,.92-1.44,1.33,0,.15,0,.26,0,.41a40.15,40.15,0,0,1-.93,8.38C72.73,143.34,71.51,145.15,70,145.68Zm-.67-1.92c1.1-.38,1.66-1.86,2.16-3.68a29.1,29.1,0,0,0,.8-6.08,22.52,22.52,0,0,0-3.58,5.2c-.86,2-.95,3.16-.69,3.89A1,1,0,0,0,69.33,143.76Z"/><path class="cls-1" d="M93.19,110c4.67-1.31,7.94.14,9,4,1.24,4.44-.53,10.52-3.73,15.79-3.37,5.58-7.78,9.58-11.66,10.67-2.14.6-3.5-.12-4.08-2.18-.51-1.82-.16-5.79.88-10.16a53.23,53.23,0,0,1,4.22-11.85,1.12,1.12,0,0,1,1.45-.41,1.05,1.05,0,0,1,.39,1.4,47.76,47.76,0,0,0-4.07,11.31c-.93,3.88-1.37,7.53-.91,9.16.21.75.73,1,1.57.77,3.55-1,7.55-5,10.45-9.77s4.65-10.16,3.53-14.18c-.73-2.61-2.88-3.62-6.52-2.6a20.31,20.31,0,0,0-7.91,4.28,1,1,0,1,1-1.34-1.54A22.16,22.16,0,0,1,93.19,110Z"/><path class="cls-1" d="M110.76,118.35c-1,4.88-2,10.47-2.49,15.53a1,1,0,0,1-.79.88,1,1,0,0,1-1.23-.75,1.94,1.94,0,0,1,0-.54c.53-5.11,1.55-10.68,2.54-15.54a111.32,111.32,0,0,1,3-11.67,1,1,0,0,1,.78-.69,1,1,0,0,1,1.18.77.93.93,0,0,1,0,.55A98.7,98.7,0,0,0,110.76,118.35Z"/><path class="cls-1" d="M134.06,129.49c-1.81.35-3-.81-4.23-4.07a80.8,80.8,0,0,1-2.41-8c-.71-2.68-1.54-5.72-2.35-9.46-.65,2-1.46,4.76-2.32,7.74-1.48,5.41-3.07,11.59-3.84,15.78a1.13,1.13,0,0,1-1.23.82,1.11,1.11,0,0,1-.82-1.22c.81-4.25,2.35-10.41,3.92-15.89a96.73,96.73,0,0,1,3.7-11.36,1,1,0,0,1,1.88.33c1,5.18,2.09,9.36,3,12.69s1.62,5.9,2.31,7.7,1.28,3.06,2,2.92,1.38-1.79,2.1-3.71c1-2.45,1.87-5.73,2.8-9.11.74-2.61,1.4-5.3,2.07-7.75s1.32-4.69,1.94-6.39a1,1,0,0,1,1.91.72c-.62,1.65-1.24,3.84-1.91,6.24s-1.35,5.09-2,7.69a97,97,0,0,1-2.85,9.32C136.51,127.59,135.35,129.25,134.06,129.49Z"/><path class="cls-1" d="M153.56,126.53c-4.08.54-6.72-1.25-7.31-5.67-.65-4.86,1.21-10.34,5-14.85a26.73,26.73,0,0,1,17.16-9.14,1,1,0,1,1,.27,2,24.87,24.87,0,0,0-15.89,8.44c-3.41,4.12-5,9-4.39,13.25.41,3,2.19,4.3,4.88,3.94,2.5-.33,5.24-2.17,7.3-4.3a12.63,12.63,0,0,0,2.82-3.75,15,15,0,0,1-4.59,1.49c-2.31.31-3.81-.71-4-2.29-.31-2.26,2.1-4.39,5.8-4.89,2.59-.34,4.33.6,5,2.47,1-.52,1.9-1.14,2.94-1.77a1,1,0,1,1,1.11,1.71c-1.45.88-2.82,1.6-3.82,2.13-.24,1.84-1.56,4.07-3.75,6.37A15.09,15.09,0,0,1,153.56,126.53Zm5.13-10.61a17,17,0,0,0,5.06-1.66c-.21-1.24-1.06-1.71-2.88-1.47-2.21.3-4.22,1.39-4.08,2.45C156.88,115.87,157.44,116.08,158.69,115.92Z"/><path class="cls-1" d="M183.37,123.13a.93.93,0,0,1-1-.85,2,2,0,0,1,.1-.69c1-3.81,2.52-8.34,4.07-12.48,1.3-3.54,2.62-6.89,3.79-9.5a27.29,27.29,0,0,1-5.74-.81c-.78-.13-1.15-.5-1.19-1a1,1,0,0,1,1-1,2.19,2.19,0,0,1,.64,0,22.13,22.13,0,0,0,6.36.71c1.94-.13,5.71-1,13.24-3.12a3.23,3.23,0,0,1,.67-.15,1,1,0,0,1,1.08.9c0,.58-.37,1-1.13,1.19-6.62,1.79-10.05,2.76-12.65,3.09-1.22,2.71-2.71,6.36-4.18,10.35s-2.94,8.52-3.94,12.23C184.21,122.78,183.9,123.09,183.37,123.13Z"/><path class="cls-1" d="M217.21,121.69a1,1,0,0,1-1-1,2,2,0,0,1,.08-.54c1.17-3.61,2.67-7.48,4.13-11.06-2.08.2-4.2.5-6.23.79a78.66,78.66,0,0,0-7.76,1.65c-1.33,3.28-2.55,6.66-3.59,9.84a1,1,0,0,1-1,.7,1,1,0,0,1-1-1,2.52,2.52,0,0,1,.08-.54c1.58-4.89,3.72-10.13,5.69-14.69a114.93,114.93,0,0,1,5.35-10.8,1,1,0,0,1,.91-.5,1,1,0,0,1,1,1,1,1,0,0,1-.14.54,96,96,0,0,0-5.25,10.6l-1.11,2.5a57.83,57.83,0,0,1,6.47-1.28c2.41-.4,5-.71,7.49-.91.23-.54.41-1,.64-1.52a110.12,110.12,0,0,1,5.35-10.8,1,1,0,0,1,.91-.51,1,1,0,0,1,1,1,.89.89,0,0,1-.13.54,99.48,99.48,0,0,0-5.26,10.6c-.09.2-.13.35-.23.54l.83,0a1,1,0,0,1,1,1,1.08,1.08,0,0,1-1.09,1,12,12,0,0,0-1.74.14c-1.6,3.87-3.19,8.08-4.45,12A1,1,0,0,1,217.21,121.69Z"/><path class="cls-1" d="M232.89,122a5.63,5.63,0,0,1-3.95-1.44,4.66,4.66,0,0,1-1.33-3.47c0-1.89,1-4,3.58-6a20.28,20.28,0,0,1,4.42-2.62,4.19,4.19,0,0,1-2-3.73c.06-2.57,2-5,6-6.85,3.52-1.57,8.68-2.62,15.23-2.77A1,1,0,0,1,254.9,97c-6.2.11-11.12,1.12-14.5,2.64-2.94,1.3-4.77,3-4.81,5.08s1.3,2.55,2.71,2.58a36.3,36.3,0,0,1,4.44-1.35,14.91,14.91,0,0,1,3.84-.65c1.79,0,2,1.11,1.37,1.73s-2.46,1.4-4.5,1.74a32.38,32.38,0,0,1-4.81.48,21.31,21.31,0,0,0-6.23,3.31c-2,1.5-2.83,3.08-2.86,4.54a2.67,2.67,0,0,0,.73,2,3.69,3.69,0,0,0,2.65.93,10.7,10.7,0,0,0,5.12-1.44,105.66,105.66,0,0,0,10.36-6.27,1,1,0,1,1,1,1.67,112.64,112.64,0,0,1-10.51,6.32A12.23,12.23,0,0,1,232.89,122Z"/><path class="cls-1" d="M257.42,122.78a1,1,0,0,1-.95-1.08,1.09,1.09,0,0,1,.24-.62,96.19,96.19,0,0,1,12.05-11.16c2.82-2.29,5.41-4,6.11-5.08-1.81.17-5.55,1.67-9.19,3.09-5,2-8.19,3.39-9.35,3.32a1.28,1.28,0,0,1-1.31-1.5c.1-1.45,2.17-4.13,5.42-7a67.16,67.16,0,0,1,10.15-7.5.92.92,0,0,1,.6-.15,1,1,0,0,1,.46,1.87,69.16,69.16,0,0,0-9.86,7.32c-2.16,2-4,3.77-4.54,4.85,1.29-.4,4.39-1.8,7.68-3.09,4.34-1.71,8.91-3.35,10.66-3.23,1.11.07,1.56.63,1.5,1.5-.09,1.41-2.88,3.89-7,7.22a88,88,0,0,0-11.79,10.93A1.07,1.07,0,0,1,257.42,122.78Z"/><path class="cls-1" d="M279.5,124.92a5.55,5.55,0,0,1-3.79-1.79,4.62,4.62,0,0,1-1-3.57c.21-1.88,1.36-3.9,4.1-5.69a20.55,20.55,0,0,1,4.64-2.21,4.2,4.2,0,0,1-1.62-3.89c.29-2.55,2.45-4.84,6.56-6.28,3.65-1.25,8.88-1.84,15.41-1.4a1,1,0,0,1-.11,1.94c-6.2-.45-11.18.11-14.68,1.33-3,1-5,2.61-5.25,4.63s1.07,2.65,2.46,2.81a36.94,36.94,0,0,1,4.55-1,14.51,14.51,0,0,1,3.88-.3c1.78.2,1.86,1.28,1.21,1.84s-2.57,1.18-4.63,1.34a32.92,32.92,0,0,1-4.84,0,21.49,21.49,0,0,0-6.49,2.74c-2.1,1.32-3.1,2.82-3.26,4.26a2.6,2.6,0,0,0,.55,2.06,3.63,3.63,0,0,0,2.55,1.17,10.78,10.78,0,0,0,5.23-1,106.29,106.29,0,0,0,10.88-5.32,1,1,0,1,1,.88,1.76,114.3,114.3,0,0,1-11,5.35A12.26,12.26,0,0,1,279.5,124.92Z"/><path class="cls-1" d="M334.54,129.09c-3.49,3.22-4.85,3.84-6.56,3.51-2.09-.41-3-2.12-1-6.57l2.69-6c.7-1.59,1.19-2.82.43-3s-1.26.35-2.11,1.17l-8.23,7.77c-3.74,3.52-4.87,4-6.49,3.68s-2.18-1.71-1.72-4.09a36,36,0,0,1,4.11-10,51.92,51.92,0,0,1,8.73-11.33,1,1,0,0,1,1.39,1.45,48.39,48.39,0,0,0-8.33,10.87,34.28,34.28,0,0,0-3.9,9.36c-.16.81-.27,1.63.35,1.75,1,.19,2.48-1.35,4.42-3.19l8.28-7.77c1.51-1.43,2.74-1.93,3.89-1.71a2.19,2.19,0,0,1,2,2.22,9.9,9.9,0,0,1-1.05,3.6l-2.68,5.94c-1.29,2.81-1,3.55-.23,3.71s2-.5,4.63-3c3.25-3,8.31-8.45,16.59-18.24a1,1,0,0,1,1.52,1.28C342.92,120.5,337.78,126.12,334.54,129.09Z"/><path class="cls-1" d="M352.57,121a21.1,21.1,0,0,0-4.74,8.27c-1,3.66.12,6,3.21,6.82,3.51.93,7.82-.94,11.6-3.85s7.13-7.09,8.15-10.93c.78-3,.25-4.35-1.91-4.92a6.1,6.1,0,0,0-4.06.58,12.53,12.53,0,0,0-4.14,3.32,1,1,0,0,1-1,.33,1,1,0,0,1-.72-1.25,1.35,1.35,0,0,1,.21-.39,13.48,13.48,0,0,1,4.77-3.85,8.35,8.35,0,0,1,5.5-.7c3.23.85,4.48,3.14,3.36,7.4s-4.62,8.75-8.9,12c-4.79,3.7-9.5,5.21-13.34,4.19-4.12-1.09-6-4.24-4.66-9.3a23,23,0,0,1,5.23-9.14,28.43,28.43,0,0,1,9.73-7,1,1,0,0,1,.66,0,1.05,1.05,0,0,1,.72,1.25,1.08,1.08,0,0,1-.58.69A25.7,25.7,0,0,0,352.57,121Z"/><path class="cls-1" d="M368.62,143.28a2.91,2.91,0,0,1-1.85-4c.57-1.7,2-3.77,6.05-6.67a58.31,58.31,0,0,1,8.85-5.28c1.21-2,2.52-4.06,3.95-6.5a1,1,0,1,1,1.81,1c-.85,1.45-1.69,2.76-2.47,4l.88-.32c4.75-1.85,9-2.74,12.24-1.66,2.62.87,3.62,2.94,2.89,5.15s-2.39,3.8-8.26,5.63c-6.78,2.14-9,2.83-9.51,4.35s1.4,4.7,4,8.27a1,1,0,0,1-1.62,1.2c-3.88-5.22-5.08-7.92-4.39-10,.85-2.57,3-3.43,10.9-5.77,4.47-1.33,6.42-2.72,6.95-4.33.37-1.11-.12-2.09-1.59-2.57-2.49-.83-6.29-.15-10.8,1.62-1.18.47-2.42,1-3.59,1.56a95.9,95.9,0,0,1-7.4,10.46C372.29,143.27,370.23,143.81,368.62,143.28Zm.64-1.94c1.19.4,2.69-.73,4.85-3.23a65.93,65.93,0,0,0,5.31-7.23,59,59,0,0,0-5.36,3.38c-3.32,2.47-4.9,4.3-5.36,5.67C368.52,140.49,368.57,141.11,369.26,141.34Z"/><path class="cls-1" d="M417.91,132.22c4.48,1.83,6.18,5,4.66,8.71-1.74,4.26-6.87,8-12.63,10.18-6.08,2.33-12,2.78-15.75,1.26q-3.09-1.26-1.89-4.22c.72-1.75,3.43-4.67,6.93-7.48a52.94,52.94,0,0,1,10.61-6.77,1.11,1.11,0,0,1,1.39.57,1,1,0,0,1-.55,1.35,47.92,47.92,0,0,0-10.15,6.42c-3.12,2.5-5.7,5.11-6.34,6.68-.29.72,0,1.24.77,1.57,3.41,1.39,9.05.66,14.24-1.3s9.91-5.17,11.49-9c1-2.51-.05-4.62-3.55-6a20.23,20.23,0,0,0-8.87-1.48,1,1,0,1,1-.11-2A22,22,0,0,1,417.91,132.22Z"/><path class="cls-1" d="M418.57,162.84a1,1,0,0,1-.46-1.37,1.14,1.14,0,0,1,.45-.48A97,97,0,0,1,434,155.28c3.49-1,6.54-1.64,7.59-2.36-1.73-.53-5.76-.57-9.66-.66-5.44,0-8.87,0-9.91-.5a1.27,1.27,0,0,1-.64-1.88c.64-1.3,3.58-3,7.69-4.42a66,66,0,0,1,12.24-3.05,1,1,0,0,1,.61.08,1,1,0,0,1,.46,1.37.94.94,0,0,1-.75.54,69.6,69.6,0,0,0-11.9,3c-2.75,1-5.17,1.94-6.05,2.75,1.34.12,4.74,0,8.28.08,4.66.08,9.51.31,11.08,1.08,1,.49,1.19,1.18.81,2-.62,1.26-4.14,2.5-9.25,4a89.27,89.27,0,0,0-15.07,5.6A1,1,0,0,1,418.57,162.84Z"/><path class="cls-1" d="M432.74,167.92a2.08,2.08,0,0,1,2.81-.88,2.13,2.13,0,0,1,.84,2.9,2,2,0,0,1-2.85.75A2,2,0,0,1,432.74,167.92Z"/><path class="cls-1" d="M136.1,12.5c-1.64,4.71-3.24,10.14-4.42,15.1a1,1,0,0,1-.89.77,1,1,0,0,1-1.12-.9,2.5,2.5,0,0,1,0-.54c1.17-5,2.88-10.4,4.46-15.1A113.49,113.49,0,0,1,138.62.62a1,1,0,0,1,.86-.58,1,1,0,0,1,1,1.46A95.47,95.47,0,0,0,136.1,12.5Z"/></g></svg>