<svg xmlns="http://www.w3.org/2000/svg" viewBox="0 0 223.42 108.3"><defs><style>.cls-1{fill:#f28ebb;}.cls-2{fill:#fff;}</style></defs><g id="Layer_2" data-name="Layer 2"><path class="cls-1" d="M63.32,9.88a17.77,17.77,0,0,1,5.49,11.26,2.63,2.63,0,0,1-.87,2.3c-1.29,1-2.7-.11-3-1.38a5.12,5.12,0,0,1,.53-2.91C67.68,14,72.46,9.45,77.43,7A14.21,14.21,0,0,1,85.68,5.3c3.77.55,5.51,3.13,7,6.48a9.87,9.87,0,0,1,.67,6.77,2.85,2.85,0,0,1-1.26,1.68c-1.68,1-3.1-.56-3.24-2.07a7.24,7.24,0,0,1,.78-3.36c2.12-5.19,3.9-11.64,10-13.43a11,11,0,0,1,12.11,4.68c5.16,7.56,5,12.56,4,20.86-.55,4.29-3,6.32-4.86,6.42s-2.73-1.44-3.05-3c-1.77-8.3,6.64-17,15-15.53,7.69,1.36,12.46,10.84,9.66,18a.79.79,0,0,1-1.5-.13c-2.12-9,4.7-19.47,14-20.6,10.79-1.3,21.27,10.31,17.87,21a3.7,3.7,0,0,1-3.76,2.65c-3.38-.32-3.2-5.38-1.47-8.25,3.15-5.24,8.41-9.39,14.45-10.31s12.72,1.84,15.63,7.21c2.08,3.84.32,11.09-1.78,14.38a1.12,1.12,0,0,1-1.88-1.2c2-3.26,7.32-8.11,11.26-9.8s8.58-2.13,12.47-.34,6.71,6.14,5.94,10.36S208,45.15,204,43.44c9.48-1.92,19.45,7.23,18.35,16.84s-21.26,18-21.68,12.28c1-2.61,10.7,3,11.43,8.25s-2.48,10.54-6.91,13.52-9.87,4-15.19,4.47c-7.06.59-14.33.18-20.92-2.41s-12.46-7.54-15-14.14a15.31,15.31,0,1,1-25,2.58c2.36,8.94-5.88,19-15.11,18.39s-16.15-11.55-12.7-20.13c-.6,12.2-13.13,22.4-25.2,20.52-12.81-2-22-17.13-17-29.37a5,5,0,0,1,3.27-3c4.19-1.1,6.38,4.79,5,8.66-3.19,8.75-14.66,11.45-23.75,9.4C38,88,32.25,85.07,30.13,79.78c-1.81-4.48.55-10.49,4.77-12a.89.89,0,0,1,1,1.44,16.27,16.27,0,0,1-14.09,4c-5.78-1-10.82-4.66-14.69-9.06C2.92,59.42-.19,53.06,1.34,47,3,40.4,12.12,35.89,17,41.42a3.25,3.25,0,0,1,.63,3.37c-1.32,3.13-5.85,1.15-7.68-1.49A21.21,21.21,0,0,1,9.6,20.19a21.2,21.2,0,0,1,21.3-9A21.28,21.28,0,0,1,46.63,25.35a1.8,1.8,0,0,1-1.9,2.34c-6.14-.59-11.38-7.27-10.1-13.51C37.19,1.75,55.27,2.9,62.79,9.4Z"/><path class="cls-2" d="M142.29,108.3a15.28,15.28,0,0,1-15-10.94c-.2.28-.42.56-.64.84a14.58,14.58,0,0,1-24.55-1.54,17.45,17.45,0,0,1-2.17-5,24.31,24.31,0,0,1-6.32,7.73,22.68,22.68,0,0,1-17.65,5.18c-6.47-1-12.47-5.36-16-11.64a25.28,25.28,0,0,1-1.63-3.46,25.76,25.76,0,0,1-14.93.76c-7-1.58-12.12-5.25-14.07-10.07A10.5,10.5,0,0,1,28.86,74a18.3,18.3,0,0,1-7.27.18c-6.86-1.22-12.07-5.77-15.24-9.37C1.18,58.88-1,52.31.42,46.74a12.13,12.13,0,0,1,6.3-7.56A22.2,22.2,0,0,1,8.8,19.67a22.11,22.11,0,0,1,22.28-9.38,20.27,20.27,0,0,1,3.47,1,12.17,12.17,0,0,1,7.6-6.64c6.69-2.28,16-.51,21.26,4l.56.5a18.82,18.82,0,0,1,3.59,4.68A28,28,0,0,1,77,6.12a14.94,14.94,0,0,1,8.8-1.77A8.34,8.34,0,0,1,91.5,7.76C93.13,4.5,95.37,1.61,99.28.45a11.94,11.94,0,0,1,13.16,5.06,25.94,25.94,0,0,1,4.19,8.93,12.49,12.49,0,0,1,6.28-.56,13.43,13.43,0,0,1,9,6.51A20.87,20.87,0,0,1,133,18.55a17.11,17.11,0,0,1,11.79-7.45c5.53-.67,11.43,1.9,15.39,6.69a19.41,19.41,0,0,1,2,2.88,20.43,20.43,0,0,1,9.69-4.45c6.66-1,13.64,2.23,16.61,7.7a11.72,11.72,0,0,1,1,6.4,24.25,24.25,0,0,1,5.4-3.44c4.6-2,9.43-2.09,13.25-.33,4.5,2.07,7.29,7,6.48,11.39A8.48,8.48,0,0,1,211.42,43a17.74,17.74,0,0,1,6.4,3.81,16.19,16.19,0,0,1,5.52,13.55c-.56,4.92-5.32,8.76-8.11,10.61a31.18,31.18,0,0,1-6.37,3.25c2.14,1.8,3.91,4.12,4.22,6.43.74,5.29-2.14,11-7.32,14.44s-11.36,4.27-15.64,4.63c-8.36.69-15.34-.12-21.35-2.47a29.87,29.87,0,0,1-10.32-6.7,15.71,15.71,0,0,1-16.16,17.72ZM128.6,95.18a14.39,14.39,0,0,0,5.49,8.71A14.27,14.27,0,0,0,156,87.64a22.74,22.74,0,0,1-2.76-5,.95.95,0,0,1,1.6-1,14.94,14.94,0,0,1,2.85,5.1,26.8,26.8,0,0,0,11.82,8.78c5.73,2.24,12.43,3,20.49,2.34,4.07-.34,10-1.15,14.74-4.31,3.75-2.52,7.22-7.4,6.5-12.6-.28-2-2.28-4.34-4.58-6a11.83,11.83,0,0,1-3.2.43c-3.12-.06-3.6-1.93-3.66-2.74a.93.93,0,0,1,.06-.4c.16-.44.74-1.46,2.56-1.26a11.52,11.52,0,0,1,4.61,1.9c5.76-1.73,13.81-7,14.46-12.69a14.33,14.33,0,0,0-4.91-11.94A15.47,15.47,0,0,0,209,44.37a7.19,7.19,0,0,1-5.38-.06,1,1,0,0,1,.2-1.81,14.48,14.48,0,0,1,5-.1l.39-.19a6.84,6.84,0,0,0,3.54-4.61c.65-3.6-1.67-7.6-5.4-9.32-3.34-1.54-7.6-1.41-11.71.35a26.07,26.07,0,0,0-6.6,4.59,19.53,19.53,0,0,1-2.35,6,2,2,0,0,1-2.81.62,2,2,0,0,1-.69-2.83,26.09,26.09,0,0,1,4.1-4.8c.54-2.71.55-5.56-.46-7.43-2.59-4.79-8.75-7.61-14.64-6.72a18.55,18.55,0,0,0-9.12,4.33,15.7,15.7,0,0,1,.65,10.92A4.64,4.64,0,0,1,159,36.67a3.63,3.63,0,0,1-3-2c-1.13-2.26-.45-5.63.77-7.66a24.52,24.52,0,0,1,4-5,17.06,17.06,0,0,0-2-3c-3.56-4.3-8.81-6.61-13.71-6a15.24,15.24,0,0,0-10.46,6.65A17.72,17.72,0,0,0,133,22.51a14.26,14.26,0,0,1,.32,10.61,1.74,1.74,0,0,1-3.31-.26,17.42,17.42,0,0,1,.91-10.33c-.12-.26-.26-.51-.4-.77a11.61,11.61,0,0,0-7.92-6,10.55,10.55,0,0,0-5.59.57,41.4,41.4,0,0,1-.39,10.7c-.61,4.8-3.4,7.12-5.74,7.25-2,.12-3.51-1.24-4-3.73a13.75,13.75,0,0,1,4-12.29,15.41,15.41,0,0,1,4.09-3.06,23.65,23.65,0,0,0-4-8.62,10,10,0,0,0-11.05-4.3c-3.64,1.07-5.61,4-7.13,7.39.3.57.57,1.15.82,1.74a10.72,10.72,0,0,1,.71,7.41,3.81,3.81,0,0,1-1.69,2.24,2.83,2.83,0,0,1-2.8.11,3.69,3.69,0,0,1-1.87-2.92,8.11,8.11,0,0,1,.85-3.81c.25-.63.5-1.27.76-1.91.35-.91.71-1.83,1.1-2.75a6.69,6.69,0,0,0-5-3.54,13.11,13.11,0,0,0-7.69,1.58,25.91,25.91,0,0,0-9.37,8,18.42,18.42,0,0,1,1.28,5.25,3.57,3.57,0,0,1-1.22,3.13,2.52,2.52,0,0,1-2.51.46,3.22,3.22,0,0,1-2-2.39,6,6,0,0,1,.58-3.47,20.17,20.17,0,0,1,1.68-3.17,16.56,16.56,0,0,0-3.66-5h0l-.49-.45c-4.69-4.06-13.4-5.69-19.4-3.65a10.46,10.46,0,0,0-6.48,5.62,22.58,22.58,0,0,1,11.25,13,2.75,2.75,0,0,1-2.9,3.58A12.58,12.58,0,0,1,36,23.47,12,12,0,0,1,33.7,14c.06-.3.13-.6.21-.89a18,18,0,0,0-3.2-.94A20.14,20.14,0,0,0,10.4,20.71,20.21,20.21,0,0,0,8.48,38.46c.23-.07.47-.14.7-.19a8.32,8.32,0,0,1,8.5,2.52,4.22,4.22,0,0,1,.8,4.38,3.41,3.41,0,0,1-2.88,2.15c-2.37.24-5.14-1.58-6.46-3.48a18.77,18.77,0,0,1-1.68-2.91,10.14,10.14,0,0,0-5.2,6.28C.49,54.24,5.53,61,7.78,63.51c3,3.37,7.83,7.63,14.15,8.75a16.13,16.13,0,0,0,7.67-.49,9.19,9.19,0,0,1,5-4.92,1.84,1.84,0,0,1,2.2.74,1.78,1.78,0,0,1-.25,2.26A15.33,15.33,0,0,1,31,73.32a8.79,8.79,0,0,0,0,6.11c2.42,6,9.7,8.24,12.72,8.92a25.34,25.34,0,0,0,13.88-.76,21,21,0,0,1,.53-13.71,6,6,0,0,1,3.92-3.58,4.48,4.48,0,0,1,4.63,1.4,8.92,8.92,0,0,1,1.48,8.5A16,16,0,0,1,60,88.7,23.08,23.08,0,0,0,61.53,92c3.28,5.78,8.77,9.78,14.68,10.7a20.73,20.73,0,0,0,16.15-4.78,21.86,21.86,0,0,0,7-10,13.72,13.72,0,0,1,1-5.13,1,1,0,0,1,1.83.41,20.07,20.07,0,0,1-.9,5,14.77,14.77,0,0,0,2.35,7.5A12.68,12.68,0,0,0,125.13,97a16.29,16.29,0,0,0,1.49-2.16,16,16,0,0,1,1.62-10.46.95.95,0,0,1,1.75.21A14.85,14.85,0,0,1,128.6,95.18ZM63.3,72a3,3,0,0,0-.76.11,4,4,0,0,0-2.63,2.45,19,19,0,0,0-.53,12.25,13.23,13.23,0,0,0,7-7.29A7.1,7.1,0,0,0,65.29,73,2.66,2.66,0,0,0,63.3,72Zm138.45.83c.15.28.56.59,1.7.61.2,0,.41,0,.63,0l-.21-.1A4.39,4.39,0,0,0,201.75,72.86ZM35,68.69a6.58,6.58,0,0,0-2.26,1.7A13.1,13.1,0,0,0,35,68.69ZM9.22,40.22a19.55,19.55,0,0,0,1.48,2.54c1.11,1.6,3.26,2.81,4.71,2.67a1.53,1.53,0,0,0,1.32-1,2.28,2.28,0,0,0-.48-2.37,6.48,6.48,0,0,0-6.62-1.94Zm176.84-3.89a14.09,14.09,0,0,0-1.25,1.72c0,.06-.08.12.07.22s.16,0,.2,0A13,13,0,0,0,186.06,36.33Zm-24.49-12.5A22.89,22.89,0,0,0,158.39,28c-1.09,1.81-1.4,4.42-.7,5.82a1.67,1.67,0,0,0,1.45,1,2.74,2.74,0,0,0,2.76-2A13.7,13.7,0,0,0,161.57,23.83Zm-46.41-6.64a13.92,13.92,0,0,0-3,2.39,11.87,11.87,0,0,0-3.46,10.58c.33,1.53,1,2.28,2.07,2.22,1.32-.07,3.46-1.62,4-5.59A42.53,42.53,0,0,0,115.16,17.19Zm16.77,8.3a15.25,15.25,0,0,0-.22,6.4A11.94,11.94,0,0,0,131.93,25.49ZM35.67,13.9c0,.16-.07.31-.11.47a10.15,10.15,0,0,0,2,8,10.69,10.69,0,0,0,7.28,4.41.84.84,0,0,0,.75-.32.82.82,0,0,0,.15-.78A20.63,20.63,0,0,0,35.67,13.9Zm31.52,4c-.3.55-.56,1.1-.8,1.66a4.38,4.38,0,0,0-.46,2.37,1.34,1.34,0,0,0,.75,1,.65.65,0,0,0,.67-.15,1.69,1.69,0,0,0,.51-1.48A16.23,16.23,0,0,0,67.19,17.85ZM91.71,12c-.16.4-.32.8-.47,1.2-.26.66-.51,1.31-.77,1.94a6.53,6.53,0,0,0-.71,2.91,1.82,1.82,0,0,0,.85,1.41,1,1,0,0,0,1-.07,2,2,0,0,0,.82-1.14,9.06,9.06,0,0,0-.63-6.11Z"/><path class="cls-2" d="M38.34,57a2.45,2.45,0,0,1-2.12-3c.46-3.39,3.82-7.4,9.91-11.88.37-.29.74-.53,1.12-.82.7-1.76,1.44-3.76,2.2-6a1,1,0,0,1,1-.58.79.79,0,0,1,.71.94,2.89,2.89,0,0,1-.17.65c-.41,1.17-.86,2.29-1.26,3.37,4.54-2.75,8.6-4.06,11.57-3.65,2.28.31,3.3,1.79,3,3.78-.31,2.23-1.93,4.58-4.86,6.92s-5.72,3.4-8.08,3.08a3.5,3.5,0,0,1-3.07-3.79.94.94,0,0,1,1-.79.81.81,0,0,1,.72.86,1.85,1.85,0,0,0,1.54,2c2,.27,4.61-1,6.78-2.75s4-4,4.19-5.75c.15-1.07-.41-1.65-1.52-1.8-3.27-.45-8,1.69-12.38,4.63-.58,1.44-1.14,2.8-1.68,4A63,63,0,0,1,43.65,53C41.82,55.88,40.08,57.24,38.34,57Zm.23-1.74c.79.1,1.91-.71,3.56-3.23a51,51,0,0,0,3.3-6.33c.18-.4.37-.84.55-1.27-4.19,3.3-7.66,7.13-8,9.82C37.87,54.84,38.08,55.2,38.57,55.27Z"/><path class="cls-2" d="M60.26,60a2.5,2.5,0,0,1-2.19-3.08c.2-1.53,1.11-3.51,4-6.61a50.61,50.61,0,0,1,6.66-5.88c.71-1.84,1.49-3.84,2.3-6.13a.91.91,0,0,1,1.13-.56.92.92,0,0,1,.57,1.13c-.49,1.37-1,2.6-1.45,3.8l.69-.41c3.73-2.31,7.16-3.74,10.1-3.34,2.36.32,3.53,1.91,3.26,3.89s-1.42,3.6-6.09,6.09c-5.41,2.88-7.18,3.82-7.36,5.19s1.93,3.76,4.69,6.37a.86.86,0,0,1,0,1.22.87.87,0,0,1-1.23.05c-4.12-3.81-5.56-5.9-5.31-7.76.32-2.32,2-3.39,8.32-6.62,3.57-1.83,5-3.32,5.19-4.77.14-1-.43-1.75-1.76-1.93-2.23-.3-5.34.88-8.88,3.09-.93.59-1.9,1.22-2.79,1.9a82.78,82.78,0,0,1-4.6,10C63.37,59.39,61.71,60.18,60.26,60Zm.24-1.73c1.07.14,2.16-1.06,3.59-3.52a57.21,57.21,0,0,0,3.35-7,47.06,47.06,0,0,0-4,3.71C61,54.1,60,55.9,59.8,57.14,59.74,57.64,59.87,58.16,60.5,58.25Z"/><path class="cls-2" d="M84.67,63.26a4.87,4.87,0,0,1-3.24-1.62,4,4,0,0,1-.8-3.1c.22-1.62,1.25-3.33,3.65-4.82a17.83,17.83,0,0,1,4-1.81A3.62,3.62,0,0,1,87,48.53c.3-2.19,2.21-4.12,5.78-5.28,3.16-1,7.68-1.4,13.3-.89a.84.84,0,0,1-.14,1.67,32.37,32.37,0,0,0-12.67.85c-2.64.82-4.38,2.14-4.61,3.88a2.08,2.08,0,0,0,2.06,2.47,31.8,31.8,0,0,1,3.93-.73A13,13,0,0,1,98,50.32c1.53.21,1.57,1.14,1,1.61A7.54,7.54,0,0,1,95,53a28,28,0,0,1-4.16-.06,18.42,18.42,0,0,0-5.65,2.22c-1.84,1.1-2.72,2.37-2.89,3.61a2.27,2.27,0,0,0,.43,1.79,3.16,3.16,0,0,0,2.17,1.05,9.16,9.16,0,0,0,4.52-.73,91.58,91.58,0,0,0,9.48-4.36.87.87,0,0,1,1.13.41A.88.88,0,0,1,99.61,58,95.67,95.67,0,0,1,90,62.42,10.59,10.59,0,0,1,84.67,63.26Z"/><path class="cls-2" d="M102,65.4a.9.9,0,0,1-.38-1.19,30.86,30.86,0,0,1,6.7-8.73A5.08,5.08,0,0,1,106.68,51c.38-2.81,2.36-4.69,6-5.71,3.24-.91,7.8-1.05,13.46-.24a.88.88,0,0,1-.23,1.74c-5.34-.72-9.72-.69-12.79.2-2.72.77-4.42,2.14-4.71,4.25a3.34,3.34,0,0,0,1.35,3.13,9.7,9.7,0,0,1,7.19-2.1c2.15.3,3.27,1.37,3,3-.28,2-2.84,2.94-6.52,2.44a11.11,11.11,0,0,1-3.64-1.17,27.18,27.18,0,0,0-6.63,8.5A.89.89,0,0,1,102,65.4Zm9.42-10.05a8.63,8.63,0,0,0,2.31.61c2.81.38,4.42-.29,4.51-1s-.43-.86-1.55-1A7.85,7.85,0,0,0,111.44,55.35Z"/><path class="cls-2" d="M130.11,69.47a2.51,2.51,0,0,1-2.29-2.92c.13-1,.73-2.3,2.72-3.93a23.54,23.54,0,0,1,7.09-3.5,47.64,47.64,0,0,0,2.14-4.94,23.86,23.86,0,0,0,1.29-4.5c.08-.62-.07-1-.61-1.09-.87-.12-2.41.68-4.22,1.87a62.74,62.74,0,0,0-6.73,5.24c-2.19,1.85-4.32,3.92-6.28,5.93a68.27,68.27,0,0,0-4.8,5.58.82.82,0,0,1-1.2.17.83.83,0,0,1-.18-1.2,51.37,51.37,0,0,1,5-5.77c1.92-2.06,4.13-4.12,6.33-6a62.29,62.29,0,0,1,7-5.37c2.35-1.5,4.27-2.29,5.51-2.12,1.45.2,2.21,1.35,2,3.05a25.52,25.52,0,0,1-1.37,4.87c-.46,1.16-1,2.4-1.51,3.67l4.72-1.26a.85.85,0,0,1,1.05.61.83.83,0,0,1-.61,1.06l-4.54,1.19c-.56.13-1.14.31-1.62.45l-.17.32a33.76,33.76,0,0,1-4,6.07C133.12,68.74,131.48,69.66,130.11,69.47Zm.24-1.73c1,.13,2-.79,3.09-2a24.64,24.64,0,0,0,3-4.35A19.29,19.29,0,0,0,131.66,64c-1.42,1.16-2,2.06-2,2.72A.82.82,0,0,0,130.35,67.74Z"/><path class="cls-2" d="M163.09,56.47a7.69,7.69,0,0,0,1.36-2.85c.16-1.16-.39-1.82-1.63-2C160,51.25,156,53.15,152.58,56s-6.44,6.79-7,10.56c-.27,2,.48,3.31,2.13,3.53a7.21,7.21,0,0,0,3.93-.69c2-.78,4.85-2.2,9.84-4.52a.88.88,0,1,1,.7,1.62c-5,2.34-7.91,3.72-9.87,4.51a8.48,8.48,0,0,1-4.83.82c-2.77-.38-4.06-2.36-3.63-5.51.56-4.14,3.72-8.47,7.56-11.65s8.46-5.22,11.64-4.78c2.36.32,3.4,1.64,3.09,4a9.16,9.16,0,0,1-1.63,3.61,25.29,25.29,0,0,1-4.09,4.33.89.89,0,1,1-1.16-1.34A19.73,19.73,0,0,0,163.09,56.47Z"/><path class="cls-2" d="M167.55,74.52a4.84,4.84,0,0,1-3.23-1.62,4,4,0,0,1-.8-3.1c.22-1.62,1.25-3.33,3.64-4.82a18.13,18.13,0,0,1,4-1.81,3.61,3.61,0,0,1-1.31-3.38c.3-2.19,2.2-4.12,5.77-5.28,3.17-1,7.69-1.4,13.3-.89a.84.84,0,0,1-.14,1.67,32.3,32.3,0,0,0-12.66.85c-2.64.82-4.38,2.14-4.62,3.88a2.09,2.09,0,0,0,2.07,2.47,31.45,31.45,0,0,1,3.93-.73,12.92,12.92,0,0,1,3.35-.18c1.53.21,1.57,1.14,1,1.61a7.51,7.51,0,0,1-4,1.06,28.07,28.07,0,0,1-4.16-.06,18.42,18.42,0,0,0-5.65,2.22c-1.83,1.1-2.72,2.37-2.89,3.61a2.27,2.27,0,0,0,.43,1.79,3.16,3.16,0,0,0,2.18,1,9.16,9.16,0,0,0,4.52-.73,92.56,92.56,0,0,0,9.48-4.36.85.85,0,0,1,.72,1.53,97.78,97.78,0,0,1-9.61,4.38A10.63,10.63,0,0,1,167.55,74.52Z"/></g></svg>