<svg xmlns="http://www.w3.org/2000/svg" viewBox="0 0 52.42 36.27"><defs><style>.cls-1{fill:#fff;}</style></defs><g id="Layer_2" data-name="Layer 2"><path class="cls-1" d="M51.68,2c-15.59-4.29-23.3-.55-25.47.85C24,1.45,16.33-2.29.73,2A1,1,0,0,0,0,3V34.38a1,1,0,0,0,.39.8,1,1,0,0,0,.87.17c17.23-4.73,24.22.62,24.32.7l.09.05.11.07h0a1.11,1.11,0,0,0,.4.09h.05a1.3,1.3,0,0,0,.33-.07h.05l.14-.1.06,0c.07-.06,7.05-5.44,24.32-.7a1,1,0,0,0,.87-.17,1,1,0,0,0,.39-.8V3A1,1,0,0,0,51.68,2ZM14.37,31.38A50,50,0,0,0,2,33.09V3.73c14.61-3.84,21.63-.16,23.21.86V33.51A24.38,24.38,0,0,0,14.37,31.38Zm36.05,1.71c-13-3.3-20.22-1.05-23.21.42V4.59c1.59-1,8.61-4.69,23.21-.86Z"/></g></svg>