<?xml version="1.0" encoding="utf-8"?>
<!-- Generator: Adobe Illustrator 24.1.0, SVG Export Plug-In . SVG Version: 6.00 Build 0)  -->
<svg version="1.1" id="Layer_1" xmlns="http://www.w3.org/2000/svg" xmlns:xlink="http://www.w3.org/1999/xlink" x="0px" y="0px"
	 viewBox="0 0 19 19" style="enable-background:new 0 0 19 19;" xml:space="preserve">
<style type="text/css">
	.st0{fill:#FFFFFF;}
</style>
<g id="Layer_1_1_">
</g>
<g id="Layer_2_1_">
	<path class="st0" d="M18.8,17.5l-8-8l8-8c0.3-0.3,0.3-0.9,0-1.2s-0.9-0.3-1.2,0l-8,8l-8-8c-0.3-0.3-0.9-0.3-1.2,0s-0.3,0.9,0,1.2
		l8,8l-8,8c-0.3,0.3-0.3,0.9,0,1.2C0.4,19,0.6,19,0.9,19s0.4-0.1,0.6-0.3l8-8l8,8c0.2,0.2,0.4,0.3,0.6,0.3s0.5-0.1,0.6-0.3
		C19.1,18.4,19.1,17.9,18.8,17.5z"/>
</g>
</svg>
