<?xml version="1.0" encoding="utf-8"?>
<!-- Generator: Adobe Illustrator 24.1.0, SVG Export Plug-In . SVG Version: 6.00 Build 0)  -->
<svg version="1.1" xmlns="http://www.w3.org/2000/svg" xmlns:xlink="http://www.w3.org/1999/xlink" x="0px" y="0px"
	 viewBox="0 0 19.02 19.02" style="enable-background:new 0 0 19.02 19.02;" xml:space="preserve">
<style type="text/css">
	.st0{fill:#FFFFFF;}
	.st1{fill:none;stroke:#FFFFFF;stroke-width:2;stroke-linecap:round;stroke-miterlimit:10;}
	.st2{fill:#606060;}
	.st3{clip-path:url(#SVGID_34_);}
	.st4{fill:none;stroke:#FFFFFF;stroke-width:0.6701;stroke-miterlimit:10;}
	.st5{fill:none;stroke:#FFFFFF;stroke-linecap:round;stroke-miterlimit:10;}
	.st6{clip-path:url(#SVGID_36_);}
	.st7{fill:none;}
	.st8{clip-path:url(#SVGID_50_);}
	.st9{fill:none;stroke:#F9D946;stroke-linecap:round;stroke-miterlimit:10;}
	.st10{clip-path:url(#SVGID_58_);}
	.st11{clip-path:url(#SVGID_62_);}
	.st12{fill:none;stroke:#FFFFFF;stroke-width:0.5;stroke-miterlimit:10;}
	.st13{clip-path:url(#SVGID_64_);}
	.st14{clip-path:url(#SVGID_66_);}
	.st15{clip-path:url(#SVGID_76_);}
	.st16{clip-path:url(#SVGID_80_);}
	.st17{clip-path:url(#SVGID_82_);}
	.st18{fill:none;stroke:#FFFFFF;stroke-width:1.0607;stroke-linecap:round;stroke-miterlimit:10;}
	.st19{clip-path:url(#SVGID_100_);}
	.st20{clip-path:url(#SVGID_106_);}
	.st21{fill:none;stroke:#F39EC4;stroke-width:1.75;stroke-linecap:round;stroke-miterlimit:10;}
	.st22{fill:none;stroke:#F39EC4;stroke-width:1.2772;stroke-linecap:round;stroke-miterlimit:10;}
	.st23{clip-path:url(#SVGID_108_);}
	.st24{fill:none;stroke:#FFFFFF;stroke-width:0.9;stroke-linecap:round;stroke-miterlimit:10;}
	.st25{clip-path:url(#SVGID_120_);}
	.st26{clip-path:url(#SVGID_124_);}
	.st27{fill:none;stroke:#F8D942;stroke-width:0.9;stroke-linecap:round;stroke-miterlimit:10;}
	.st28{clip-path:url(#SVGID_126_);}
	.st29{fill:none;stroke:#F39EC4;stroke-width:1.0715;stroke-linecap:round;stroke-miterlimit:10;}
	.st30{clip-path:url(#SVGID_128_);}
	.st31{fill:#F9DB4C;}
	.st32{fill:#F39EC4;}
</style>
<g id="Layer_1">
</g>
<g id="Layer_2">
	<path class="st32" d="M18.77,17.53l-8.02-8.02l8.02-8.02c0.34-0.34,0.34-0.9,0-1.24s-0.9-0.34-1.24,0L9.51,8.27L1.49,0.26
		c-0.34-0.34-0.9-0.34-1.24,0s-0.34,0.9,0,1.24l8.02,8.02l-8.02,8.02c-0.34,0.34-0.34,0.9,0,1.24c0.17,0.17,0.39,0.26,0.62,0.26
		s0.45-0.08,0.62-0.26l8.02-8.02l8.02,8.02c0.17,0.17,0.39,0.26,0.62,0.26s0.45-0.08,0.62-0.26C19.11,18.42,19.11,17.87,18.77,17.53
		z"/>
</g>
</svg>
